<svg width="20" height="18" viewBox="0 0 20 18" fill="none" xmlns="http://www.w3.org/2000/svg">
<path fill-rule="evenodd" clip-rule="evenodd" d="M1.63168 9.59657C0.58678 8.54241 0 7.11764 0 5.63214C0 4.1384 0.592955 2.70541 1.64917 1.64919C2.70539 0.592967 4.1384 0 5.63214 0C7.12587 0 8.55888 0.592967 9.6151 1.64919L10.0001 2.0342L10.3851 1.64919C11.4413 0.592967 12.8733 0 14.3671 0C15.8618 0 17.2938 0.592967 18.35 1.64919C19.4062 2.70541 20.0002 4.1384 20.0002 5.63214C20.0002 7.11764 19.4134 8.54241 18.3675 9.59657L10.7269 17.6871C10.5385 17.8868 10.275 18 10.0001 18C9.72524 18 9.46171 17.8868 9.27332 17.6871L1.63168 9.59657ZM10.0001 15.5437L16.916 8.22122L16.9366 8.20063C17.617 7.51913 18 6.59571 18 5.63214C18 4.66857 17.617 3.74516 16.9366 3.06366C16.2551 2.38216 15.3306 1.9992 14.3671 1.9992C13.4045 1.9992 12.4801 2.38216 11.7986 3.06366L10.7074 4.1559C10.3162 4.54607 9.68304 4.54607 9.29287 4.1559L8.20062 3.06366C7.52015 2.38216 6.5957 1.9992 5.63214 1.9992C4.66857 1.9992 3.74515 2.38216 3.06365 3.06366C2.38215 3.74516 2.00022 4.66857 2.00022 5.63214C2.00022 6.59571 2.38215 7.51913 3.06365 8.20063C3.07086 8.20784 3.07703 8.21401 3.08321 8.22122L10.0001 15.5437Z" fill="black"/>
</svg>
